<?xml version="1.0" encoding="utf-8"?>
<!-- Generator: Adobe Illustrator 27.1.0, SVG Export Plug-In . SVG Version: 6.00 Build 0)  -->
<svg version="1.1" id="Calque_1" xmlns="http://www.w3.org/2000/svg" xmlns:xlink="http://www.w3.org/1999/xlink" x="0px" y="0px"
	 viewBox="0 0 31.5 31.5" style="enable-background:new 0 0 31.5 31.5;" xml:space="preserve">
<style type="text/css">
	.st0{fill:#FFFFFF;}
</style>
<path class="st0" d="M23.1,28.5H5.9c-3,0-5.4-2.4-5.4-5.4V5.9c0-3,2.4-5.4,5.4-5.4h17.2c3,0,5.4,2.4,5.4,5.4v17.2
	C28.5,26.1,26.1,28.5,23.1,28.5z"/>
<path d="M23.1,0H5.9C2.7,0,0,2.7,0,5.9v16.5c0,0,0,0.2,0,0.5v0.2c0,0.5,0.1,0.9,0.2,1.4c0.5,2.7,2.2,7.1,8.7,7.1c0,0,0,0,0,0
	c0,0,0,0,0,0h17.2c3,0,5.4-2.4,5.4-5.4V8.9C31.5-0.5,23.1,0,23.1,0z"/>
<path class="st0" d="M28,5.9C28,3.2,25.8,1,23.1,1H5.9C3.2,1,1,3.2,1,5.9v17.2C1,25.8,3.2,28,5.9,28h17.2c2.7,0,4.9-2.2,4.9-4.9V5.9
	z"/>
<g>
	<path d="M14.5,22.4c-4.3,0-7.9-3.5-7.9-7.9s3.5-7.9,7.9-7.9s7.9,3.5,7.9,7.9S18.8,22.4,14.5,22.4z M14.5,8.4
		c-3.4,0-6.1,2.7-6.1,6.1s2.7,6.1,6.1,6.1s6.1-2.7,6.1-6.1S17.9,8.4,14.5,8.4z"/>
</g>
<circle cx="22.8" cy="6.3" r="1.8"/>
</svg>
