<?xml version="1.0" encoding="UTF-8"?><svg id="Calque_2" xmlns="http://www.w3.org/2000/svg" viewBox="0 0 2055.92 115.06"><defs><style>.cls-1{fill:none;stroke:#fff;stroke-width:3px;}</style></defs><g id="Calque_2-2"><path id="Group_1" class="cls-1" d="M2054.63,114.28l-43.18-71.53-2.38-3.94-23.81,40.13-31.06-29.35s-34.76,27.72-35.2,23.36c-.44-4.36-8.28-57.5-8.28-57.5l-47.63,57.5s-15.06-26.44-17.6-31.74c-2.54-5.3-43.49,25.76-43.49,25.76l-6.21-24.56-45.56,24.56s-20.24-51.89-26.92-53.91c-6.68-2.02-68.34,58.7-68.34,58.7,0,0-44.43-42.18-44.52-43.12-.1-.95-53.84,32.34-53.84,32.34,0,0-35.62-28.95-38.31-33.54-2.69-4.59-40.38,28.75-40.38,28.75l-17.6-32.34-62.12,38.33s-15.78-23.71-18.64-31.15c-2.86-7.44-68.5,32.13-78.69,33.54-10.19,1.41-.57-38.48-1.03-44.32-.47-5.84-64.2,48.52-64.2,48.52l-36.24-34.74-59.02,32.94s-22.24-20.17-23.81-23.96c-1.57-3.78-45.56,27.55-45.56,27.55l-11.39-41.33-76.62,24.56s-12.05-27.68-17.6-34.14c-5.55-6.46-41.81,51.07-50.73,52.11-8.92,1.04-22.78-50.31-22.78-50.31l-49.7,35.94-24.85-40.73-102.51,45.52-30.03-38.33-39.34,38.33-35.21-43.72-35.2,37.14-18.64-35.94-33.13,31.15-28.99-31.15-43.49,30.55s-54.32-31.97-55.91-35.94c-1.59-3.97-62.12,46.12-62.12,46.12l-27.96-48.52-101.47,42.53L180.54,2.27,114.28,48.39S67.3,10.25,60.43,6.47c-5.9-3.25-32.99,36.22-40.51,47.4-1.23,1.83-1.94,2.91-1.94,2.91L1.42,104.1"/></g></svg>