<?xml version="1.0" encoding="UTF-8"?><svg id="Calque_2" xmlns="http://www.w3.org/2000/svg" viewBox="0 0 1915 142.82"><defs><style>.cls-1{fill:#fff;stroke:#000;stroke-width:3px;}</style></defs><g id="Calque_2-2"><g><path class="cls-1" d="M1913.5,1.5V139.34l-29.83-28.18s-34.76,27.71-35.2,23.36c-.44-4.36-8.28-57.5-8.28-57.5l-47.63,57.5s-15.06-26.45-17.6-31.75c-2.54-5.3-43.49,25.76-43.49,25.76l-6.21-24.56-45.56,24.56s-20.24-51.89-26.92-53.91c-6.69-2.02-68.34,58.7-68.34,58.7,0,0-44.42-42.18-44.52-43.13-.1-.94-53.84,32.35-53.84,32.35,0,0-35.63-28.96-38.31-33.55-2.69-4.58-40.38,28.76-40.38,28.76l-17.61-32.35-62.12,38.33s-15.78-23.7-18.64-31.14c-2.85-7.44-68.5,32.13-78.69,33.54-10.19,1.41-.57-38.48-1.03-44.32-.47-5.85-64.2,48.51-64.2,48.51l-36.24-34.74-59.02,32.95s-22.24-20.18-23.81-23.96c-1.57-3.79-45.56,27.55-45.56,27.55l-11.39-41.33-76.62,24.56s-12.05-27.69-17.6-34.14c-5.56-6.46-41.82,51.07-50.74,52.11-8.92,1.04-22.78-50.31-22.78-50.31l-49.7,35.93-24.85-40.73-102.5,45.52-30.03-38.33-39.34,38.33-35.21-43.72-35.2,37.14-18.64-35.94-33.13,31.14-28.99-31.14-43.49,30.55s-54.32-31.97-55.91-35.94c-1.6-3.97-62.13,46.12-62.13,46.12l-27.95-48.52-101.47,42.53-22.78-52.11L43.75,109.96S17.63,88.76,1.5,76.4V1.5H1913.5Z"/><path d="M1913.5,1.5V139.34l-29.83-28.18s-29.56,24.91-30,20.56c-.44-4.36-8.48-59.7-8.48-59.7l-47.63,57.5s-15.06-26.45-17.6-31.75c-2.54-5.3-43.49,25.76-43.49,25.76l-6.21-24.56-45.56,24.56s-20.24-51.89-26.92-53.91c-6.69-2.02-68.34,58.7-68.34,58.7,0,0-44.42-42.18-44.52-43.13-.1-.94-53.84,32.35-53.84,32.35,0,0-35.63-28.96-38.31-33.55-2.69-4.58-40.38,28.76-40.38,28.76l-17.61-32.35-62.12,38.33s-15.78-23.7-18.64-31.14c-2.85-7.44-68.5,32.13-78.69,33.54-10.19,1.41-.57-38.48-1.03-44.32-.47-5.85-64.2,48.51-64.2,48.51l-36.24-34.74-59.02,32.95s-22.24-20.18-23.81-23.96c-1.57-3.79-45.56,27.55-45.56,27.55l-11.39-41.33-76.62,24.56s-12.05-27.69-17.6-34.14c-5.56-6.46-41.82,51.07-50.74,52.11-8.92,1.04-22.78-50.31-22.78-50.31l-49.7,35.93-24.85-40.73-102.5,45.52-30.03-38.33-39.34,38.33-35.21-43.72-35.2,37.14-18.64-35.94-33.13,31.14-28.99-31.14-43.49,30.55s-54.32-31.97-55.91-35.94c-1.6-3.97-62.13,46.12-62.13,46.12l-27.95-48.52-101.47,42.53-22.78-52.11L43.75,109.96S17.63,88.76,1.5,76.4V1.5H1913.5Z"/></g></g></svg>