<?xml version="1.0" encoding="UTF-8"?><svg id="Calque_2" xmlns="http://www.w3.org/2000/svg" viewBox="0 0 1915 148.09"><defs><style>.cls-1{fill:#fff;stroke:#000;stroke-width:3px;}</style></defs><g id="Calque_2-2"><g><path class="cls-1" d="M1913.5,77.77v68.82H1.5V14.83c16.13,12.36,42.25,33.56,42.25,33.56L110.02,2.27l22.78,52.11L234.27,11.85l27.95,48.52s60.53-50.09,62.13-46.12c1.59,3.97,55.91,35.94,55.91,35.94l43.49-30.55,28.99,31.14,33.13-31.14,18.64,35.94,35.2-37.14,35.21,43.72,39.34-38.33,30.03,38.33,102.5-45.52,24.85,40.73,49.7-35.93s13.86,51.35,22.78,50.31c8.92-1.04,45.18-58.57,50.74-52.11,5.55,6.45,17.6,34.14,17.6,34.14l76.62-24.56,11.39,41.33s43.99-31.34,45.56-27.55c1.57,3.78,23.81,23.96,23.81,23.96l59.02-32.95,36.24,34.74s63.73-54.36,64.2-48.51c.46,5.84-9.16,45.73,1.03,44.32,10.19-1.41,75.84-40.98,78.69-33.54,2.86,7.44,18.64,31.14,18.64,31.14l62.12-38.33,17.61,32.35s37.69-33.34,40.38-28.76c2.68,4.59,38.31,33.55,38.31,33.55,0,0,53.74-33.29,53.84-32.35,.1,.95,44.52,43.13,44.52,43.13,0,0,61.65-60.72,68.34-58.7,6.68,2.02,26.92,53.91,26.92,53.91l45.56-24.56,6.21,24.56s40.95-31.06,43.49-25.76c2.54,5.3,17.6,31.75,17.6,31.75l47.63-57.5s7.84,53.14,8.28,57.5c.44,4.35,35.2-23.36,35.2-23.36l29.83,28.18Z"/><path d="M1913.5,77.77v68.82H1.5V14.83c16.13,12.36,46.25,38.56,46.25,38.56L114.02,7.27l22.78,52.11L238.27,16.85l27.95,48.52s60.53-50.09,62.13-46.12c1.59,3.97,55.91,35.94,55.91,35.94l43.49-30.55,28.99,31.14,33.13-31.14,18.64,35.94,35.2-37.14,35.21,43.72,39.34-38.33,30.03,38.33,102.5-45.52,24.85,40.73,49.7-35.93s13.86,51.35,22.78,50.31c8.92-1.04,45.18-58.57,50.74-52.11,5.55,6.45,17.6,34.14,17.6,34.14l76.62-24.56,11.39,41.33s43.99-31.34,45.56-27.55c1.57,3.78,23.81,23.96,23.81,23.96l59.02-32.95,36.24,34.74s63.73-54.36,64.2-48.51c.46,5.84-9.16,45.73,1.03,44.32,10.19-1.41,75.84-40.98,78.69-33.54,2.86,7.44,18.64,31.14,18.64,31.14l62.12-38.33,17.61,32.35s37.69-33.34,40.38-28.76c2.68,4.59,38.31,33.55,38.31,33.55,0,0,53.74-33.29,53.84-32.35,.1,.95,44.52,43.13,44.52,43.13,0,0,61.65-60.72,68.34-58.7,6.68,2.02,26.92,53.91,26.92,53.91l45.56-24.56,6.21,24.56s40.95-31.06,43.49-25.76c2.54,5.3,17.6,31.75,17.6,31.75l47.63-57.5s7.84,53.14,8.28,57.5c.44,4.35,35.2-23.36,35.2-23.36l25.83,23.18Z"/></g></g></svg>