<?xml version="1.0" encoding="utf-8"?>
<!-- Generator: Adobe Illustrator 27.0.0, SVG Export Plug-In . SVG Version: 6.00 Build 0)  -->
<svg version="1.1" id="Calque_1" xmlns="http://www.w3.org/2000/svg" xmlns:xlink="http://www.w3.org/1999/xlink" x="0px" y="0px"
	 viewBox="0 0 1919 144.4" style="enable-background:new 0 0 1919 144.4;" xml:space="preserve">
<style type="text/css">
	.st0{fill:#FFFFFF;}
	.st1{fill:#FE82AE;}
</style>
<g id="Calque_1_00000017482680445870574560000014904104207198914211_">
	<path class="st0" d="M980.4,35.5"/>
	<path d="M1919,82.1l-41.9-39.5c-0.1-0.1-0.1-0.2-0.2-0.3l-8-8c-0.3-0.3-0.8-0.5-1.2-0.4c-0.5,0.1-0.9,0.3-1.1,0.7l-21.8,36.8
		l-27.5-26c-0.5-0.5-1.4-0.5-2-0.1l-1,0.8c-8.1,6.5-16.5,12.8-22.6,16.9c-1.3-9.4-3.3-22.9-5.6-38.6l-0.6-3.8c0-0.3-0.2-0.6-0.4-0.8
		l-8-8c-0.3-0.3-0.7-0.5-1.1-0.4c-0.4,0-0.8,0.2-1.1,0.5l-42.2,50.9c-4.7-8.3-7.6-13.7-8.5-15.6c-0.3-0.6-0.7-1.1-1.3-1.5
		c-0.3-0.4-0.6-0.7-1-1c-0.3-0.4-0.6-0.7-1-1c-0.3-0.4-0.6-0.7-1-1c-0.3-0.4-0.6-0.7-1-1c-0.3-0.4-0.6-0.7-1-1c-0.3-0.4-0.6-0.7-1-1
		c-0.3-0.4-0.6-0.7-1-1c-0.5-0.8-1.4-1.4-2.3-1.6c-1.5-0.4-6-1.5-34.2,19l-2.3-9c-0.1-0.3-0.2-0.5-0.4-0.7l-8-8
		c-0.5-0.5-1.2-0.6-1.8-0.3L1629,58.4c-6.4-15.3-14.8-33.7-20-38.2c-0.4-0.4-0.7-0.7-1-1c-0.4-0.4-0.7-0.7-1-1c-0.4-0.4-0.7-0.7-1-1
		c-0.4-0.4-0.7-0.7-1-1c-0.4-0.4-0.7-0.7-1-1c-0.4-0.4-0.7-0.7-1-1c-0.4-0.4-0.7-0.7-1-1c-1.1-1.2-2-1.9-3-2.2
		c-2.3-0.7-5.5-1.7-37.4,27.6c-11.8,10.9-23.4,22.1-27.9,26.5c-9.9-9.4-23.1-22-31.5-30.2l-8.7-8.7c-0.1-0.1-0.2-0.2-0.4-0.3
		c-1.9-0.9-2-1-28.5,15.2c-9.7,5.9-19.5,11.9-23.3,14.3c-8.5-6.9-19.8-16.4-27.2-23c-0.2-0.3-0.5-0.5-0.8-0.7c-0.3-0.4-0.6-0.7-1-1
		c-0.3-0.4-0.6-0.7-1-1c-0.3-0.4-0.6-0.7-1-1c-0.3-0.4-0.6-0.7-1-1c-0.3-0.4-0.6-0.7-1-1c-0.3-0.4-0.6-0.7-1-1
		c-0.6-0.9-1.5-1.5-2.6-1.6c-0.2,0-0.4,0-0.6,0c-4.3,0-15.8,8-34,23.7L1360,29.3c-0.1-0.1-0.2-0.2-0.3-0.3l-8-8
		c-0.5-0.5-1.3-0.6-1.8-0.2L1294.5,55c-5.4-8.5-8.7-14.4-9.8-17.2c-0.3-0.7-0.8-1.4-1.4-1.8c-0.3-0.4-0.6-0.7-1-1
		c-0.3-0.4-0.6-0.7-1-1c-0.3-0.4-0.6-0.7-1-1c-0.3-0.4-0.6-0.7-1-1c-0.3-0.4-0.6-0.7-1-1c-0.3-0.4-0.6-0.7-1-1c-0.3-0.4-0.6-0.7-1-1
		c-0.5-0.7-1.2-1.2-2-1.5c-5.1-2-18.8,4.6-46.8,19c-8,4.1-15.6,8-21.1,10.5c0.4-6,1.4-13,2.1-17.8c0.8-5.3,1.3-8.8,1.2-10.7
		c-0.1-1.1-0.6-2-1.5-2.6c-0.3-0.4-0.6-0.7-1-1c-0.3-0.4-0.6-0.7-1-1c-0.3-0.4-0.6-0.7-1-1c-0.3-0.4-0.6-0.7-1-1
		c-0.3-0.4-0.6-0.7-1-1c-0.3-0.4-0.6-0.7-1-1c-0.3-0.4-0.6-0.7-1-1c-0.4-0.6-0.9-1-1.5-1.3c-2.1-0.9-4.2-1.7-34.7,22.8
		c-11.3,9.1-22.3,18.4-26.6,22.1l-33-31.7c-0.5-0.5-1.2-0.5-1.8-0.2l-54.8,30.6c-3.2-2.9-6.5-6-9.4-8.8c-2.4-2.6-2.8-3.3-2.8-3.4
		c-0.3-0.6-0.7-1.1-1.3-1.5c-0.3-0.4-0.6-0.7-1-1c-0.3-0.4-0.6-0.7-1-1c-0.3-0.4-0.6-0.7-1-1c-0.3-0.4-0.6-0.7-1-1
		c-0.3-0.4-0.6-0.7-1-1c-0.3-0.4-0.6-0.7-1-1c-0.3-0.4-0.6-0.7-1-1c-0.4-0.7-1.1-1.2-2-1.4c-1.7-0.5-3.9-1.1-25.3,13.1
		c-3.6,2.4-7.5,5-11.6,7.9l-6.9-25c-0.1-0.3-0.2-0.5-0.4-0.7l-8-8c-0.4-0.4-1-0.5-1.5-0.4l-67.4,21.6c-5.3-11.2-9.2-18.4-11.8-21.3
		c-0.2-0.2-0.4-0.4-0.7-0.6c-0.1-0.1-0.2-0.2-0.3-0.4c-0.2-0.2-0.4-0.4-0.7-0.6c-0.1-0.1-0.2-0.2-0.3-0.4c-0.2-0.2-0.4-0.4-0.7-0.6
		c-0.1-0.1-0.2-0.2-0.3-0.4c-0.2-0.2-0.4-0.4-0.7-0.6c-0.1-0.1-0.2-0.2-0.3-0.4c-0.2-0.2-0.4-0.4-0.7-0.6c-0.1-0.1-0.2-0.2-0.3-0.4
		c-0.2-0.2-0.4-0.4-0.7-0.6c-0.1-0.1-0.2-0.2-0.3-0.4c-0.2-0.2-0.4-0.4-0.7-0.6c-0.1-0.1-0.2-0.2-0.3-0.4c-0.2-0.2-0.4-0.4-0.7-0.6
		c-0.1-0.1-0.2-0.2-0.3-0.4c-0.9-1-2-1.5-3.4-1.5c-4.8,0.1-11.3,7.7-26,26.2c-6.2,7.8-14.5,18.3-19,22.1c-1.5-3.3-3.2-7.3-4.9-12.1
		c-4.2-11.7-7.5-23.8-7.5-23.9l-0.5-2c-0.1-0.3-0.2-0.5-0.4-0.7l-8-8c-0.5-0.5-1.3-0.6-1.9-0.2L770,49.9l-16.6-27.2
		c-0.1-0.1-0.1-0.2-0.2-0.3l-8-8c-0.4-0.4-1.1-0.6-1.7-0.3L649,56l-21.2-27l-0.1-0.1l-8-8c-0.6-0.6-1.5-0.6-2.1,0l-35,34.1
		l-25.1-31.2l-0.1-0.1l-8-8c-0.3-0.3-0.7-0.4-1.1-0.4c-0.4,0-0.8,0.2-1.1,0.5l-29,30.6l-11-21.3c-0.1-0.1-0.2-0.3-0.3-0.4l-8-8
		c-0.6-0.6-1.5-0.6-2.1,0L466.6,45l-18.5-19.8l-7.8-7.9c-0.5-0.7-1.4-0.8-2.1-0.4l-40.5,28.4C381.8,36,356.5,20.6,349.3,15
		c-0.2-0.3-0.5-0.5-0.8-0.7c-0.3-0.4-0.6-0.7-1-1c-0.4-0.7-1.1-1.2-2-1.4c-2-0.5-4.1-1-33.3,22c-8.8,7-17.6,14-22.7,18.2l-19.6-34
		c-0.1-0.1-0.1-0.2-0.2-0.3l-8-8c-0.4-0.4-1.1-0.6-1.6-0.3l-90.4,37.9L152.8,8.9c-0.1-0.2-0.2-0.3-0.3-0.5l-8-8
		c-0.5-0.5-1.3-0.6-1.9-0.2L80.5,43.5C71.5,36.2,36.9,8.3,31,5c-3.2-1.8-7.8-1.4-26.2,23.2c-1.6,2.2-3.2,4.4-4.8,6.5v110.6
		c3.4,0.5,6.2,0.8,6.9,0.8H1911c3.2,0,6-1.4,8-3.7V82.1z"/>
</g>
<g id="Calque_3">
	<path class="st0" d="M1919,84.3l-42.2-40l-8-8L1846,74.7l-28.9-27.3l-1,0.8c-8.7,7-18.3,14.1-24.7,18.3
		c-2.2-15.7-5.9-40.2-6.1-41.6l-0.5-3.1l-8-8l-43.6,52.6c-4-7.1-8.4-15-9.6-17.6c-0.2-0.5-0.6-0.8-1-1c-0.2-0.4-0.6-0.8-1-1
		c-0.2-0.4-0.6-0.8-1-1c-0.2-0.4-0.6-0.8-1-1c-0.2-0.4-0.6-0.8-1-1c-0.2-0.4-0.6-0.8-1-1c-0.2-0.4-0.6-0.8-1-1c-0.2-0.4-0.6-0.8-1-1
		c-0.3-0.6-0.9-1.1-1.6-1.2c-4.8-1.2-23.4,11.7-34.8,20l-2.8-11.1l-8-8l-39.3,21.2c-5.8-14-15-34.8-20.3-39.3c-0.3-0.4-0.7-0.7-1-1
		c-0.3-0.4-0.7-0.7-1-1c-0.3-0.4-0.7-0.7-1-1c-0.3-0.4-0.7-0.7-1-1c-0.3-0.4-0.7-0.7-1-1c-0.3-0.4-0.7-0.7-1-1c-0.3-0.4-0.7-0.7-1-1
		c-0.9-1-1.7-1.6-2.3-1.8c-1.5-0.5-4.7-1.4-36,27.3c-12.9,11.9-25.4,24-28.9,27.5c-10.5-10-24.1-22.9-32.6-31.3l-8.7-8.7
		c-1-0.5-1.2-0.6-27.1,15.2c-10.6,6.5-21.2,13-24.2,14.9c-9-7.3-20.8-17.2-28.2-23.8c-0.2-0.2-0.4-0.4-0.7-0.6L1413,34l-0.1-0.1
		c-0.2-0.4-0.5-0.6-0.9-0.8c0-0.1-0.1-0.1-0.1-0.2c-0.2-0.4-0.5-0.6-0.9-0.8c0-0.1-0.1-0.1-0.1-0.2c-0.2-0.4-0.5-0.6-0.9-0.8
		c0-0.1-0.1-0.1-0.1-0.2c-0.2-0.4-0.5-0.6-0.9-0.8c0-0.1-0.1-0.1-0.1-0.2c-0.2-0.4-0.5-0.6-0.9-0.8c0-0.1-0.1-0.1-0.1-0.2
		c-0.2-0.4-0.5-0.6-0.9-0.8c0-0.1-0.1-0.1-0.1-0.2c-0.3-0.6-0.9-1-1.6-1.1c-0.1,0-0.2,0-0.4,0c-5.4,0-24.6,16-34.5,24.5L1359.6,31
		l-8-8L1295,58c-4.3-6.8-9.3-15-10.7-18.7c-0.2-0.4-0.5-0.9-1.1-1.3c-0.2-0.3-0.5-0.7-1-1c-0.2-0.3-0.5-0.7-1-1
		c-0.2-0.3-0.5-0.7-1-1c-0.2-0.3-0.5-0.7-1-1c-0.2-0.3-0.5-0.7-1-1c-0.2-0.3-0.5-0.7-1-1c-0.2-0.3-0.5-0.7-1-1
		c-0.2-0.4-0.7-0.9-1.4-1.2c-4.7-1.8-21.1,6.3-45.5,18.9c-9.1,4.7-17.8,9.2-23.4,11.6c0.2-6.5,1.4-14.9,2.3-20.4
		c0.8-5,1.3-8.7,1.2-10.3c-0.1-0.7-0.5-1.3-1.1-1.6l0,0c-0.2-0.4-0.5-0.8-1-1l0,0c-0.2-0.4-0.5-0.8-1-1l0,0c-0.2-0.4-0.5-0.8-1-1
		l0,0c-0.2-0.4-0.5-0.8-1-1l0,0c-0.2-0.4-0.5-0.8-1-1l0,0c-0.2-0.4-0.5-0.8-1-1l0,0c-0.2-0.4-0.5-0.8-1-1l0,0c-0.2-0.4-0.5-0.8-1-1
		c-1.3-0.5-3.4-1.4-33.2,22.6c-12.2,9.9-24.2,20-27.6,22.9l-34-32.6L1049.8,64c-3.1-2.8-6.8-6.3-10.3-9.6c-1.7-1.8-2.8-3.2-3.1-3.8
		c-0.2-0.4-0.5-0.8-1-1l0,0c-0.2-0.4-0.5-0.8-1-1l0,0c-0.2-0.4-0.5-0.8-1-1l0,0c-0.2-0.4-0.5-0.8-1-1l0,0c-0.2-0.4-0.5-0.8-1-1l0,0
		c-0.2-0.4-0.5-0.8-1-1l0,0c-0.2-0.4-0.5-0.8-1-1l0,0c-0.2-0.4-0.5-0.8-1-1l0,0c-0.2-0.5-0.7-0.9-1.2-1.1
		c-1.1-0.3-3.2-0.9-24.1,12.9c-4.9,3.2-9.7,6.5-13.3,9l-7.5-27.1l-8-8l-68.7,22c-3.8-8.1-9-18.5-12.1-22.2c-0.2-0.2-0.4-0.4-0.6-0.5
		c-0.1-0.2-0.3-0.3-0.4-0.5c-0.2-0.2-0.4-0.4-0.6-0.5c-0.1-0.2-0.3-0.3-0.4-0.5c-0.2-0.2-0.4-0.4-0.6-0.5c-0.1-0.2-0.3-0.3-0.4-0.5
		c-0.2-0.2-0.4-0.4-0.6-0.5c-0.1-0.2-0.3-0.3-0.4-0.5c-0.2-0.2-0.4-0.4-0.6-0.5c-0.1-0.2-0.3-0.3-0.4-0.5c-0.2-0.2-0.4-0.4-0.6-0.5
		c-0.1-0.2-0.3-0.3-0.4-0.5c-0.2-0.2-0.4-0.4-0.6-0.5c-0.1-0.2-0.3-0.3-0.4-0.5c-0.2-0.2-0.4-0.4-0.6-0.5c-0.1-0.2-0.3-0.3-0.4-0.5
		c-0.6-0.7-1.3-1-2.2-1c-4.4,0.1-12.3,9.8-24.8,25.6c-7.4,9.4-16.5,20.9-20.7,23.5c-1.6-3.2-3.5-7.7-5.7-13.9
		c-4.3-11.8-7.5-23.9-7.6-24l-0.5-2l-8-8L770.6,53l-17.5-28.6l-8-8l-95.5,42.4l-21.9-28l-8-8l-36.3,35.3l-26.1-32.4l-8-8l-30.5,32.1
		l-12-23.2l-8-8L467.5,48L448,27.2l-8-8l-41.3,29c-16.9-10-42.4-25.5-49.5-31.1c-0.2-0.3-0.4-0.5-0.8-0.6l0,0l0,0
		c-0.2-0.4-0.5-0.8-1-0.9c0,0,0,0,0-0.1c-0.2-0.5-0.6-0.9-1.2-1c-1.3-0.3-3.3-0.8-32,21.7c-9.6,7.6-19.1,15.3-24,19.3L269.7,20l-8-8
		l-91.8,38.5l-17.4-39.9l-8-8L81.4,46.4c-6.3-5.1-44.1-35.7-50.2-39c-1.6-1-5.1-2.9-24.2,22.7c-2.4,3.2-4.8,6.5-7,9.6V143v0.9
		c0.3,0.1,0.7,0.1,1,0.1v0.9c3.6,0.5,6.3,0.8,6.9,0.8H1912c2.8,0,5.3-1.3,7-3.3V84.3z"/>
</g>
<g id="Calque_4">
	<path class="st1" d="M1919,87l-43.2-41.6L1853,83.7l-28.9-27.3l-1,0.8c-12.7,10.1-27.1,20.6-31,22c-1-8-7.4-51.4-7.7-53.3l-0.5-3.1
		l-45.6,55.1c-3.3-5.8-13.6-24-15.5-28.1c-0.3-0.6-0.9-1.1-1.6-1.3c-5.6-1.4-30,16.4-39.8,23.8l-5.8-22.9l-43.2,23.3
		c-4.3-10.9-19.4-48.3-25.7-50.2c-1.5-0.5-4.7-1.4-36,27.3c-12.9,11.9-25.4,24-28.9,27.5c-15.6-14.8-38.2-36.5-40.6-39.2l-0.7-0.8
		c-1-0.5-1.2-0.6-27.1,15.2c-10.6,6.5-21.2,13-24.2,14.9c-13.4-10.9-33.3-27.7-35-30.6c-0.3-0.6-0.9-1-1.6-1.1c-0.1,0-0.2,0-0.4,0
		c-5.9,0-28.2,19.1-36.9,26.7L1358.6,32l-58.7,36.2c-3.1-4.6-14.4-22.1-16.7-28c-0.2-0.5-0.6-1.2-1.6-1.5
		c-4.7-1.8-21.1,6.3-45.5,18.9c-12.9,6.6-25.1,12.9-28.6,13.4c-0.5,0.1-0.9,0-1.2-0.4c-3.3-3.3-0.7-20.6,0.7-29.8
		c0.8-5,1.3-8.7,1.2-10.3c-0.1-0.7-0.5-1.3-1.1-1.6c-1.3-0.5-3.4-1.4-33.2,22.6c-12.2,9.9-24.2,20-27.6,22.9l-34-32.6l-55.7,31.1
		c-8.1-7.3-20.4-19.1-21.4-21.4c-0.2-0.5-0.7-0.9-1.2-1.1c-1.1-0.3-3.2-0.9-24.1,12.9c-7.6,5-15,10.2-18.2,12.4l-10.6-38.5
		l-72.5,23.2c-2.3-5.2-11.6-25.9-16.3-31.4c-0.6-0.7-1.3-1-2.2-1c-4.4,0.1-12.3,9.8-24.8,25.6c-8.3,10.5-18.7,23.6-22.1,24
		c-0.7,0.1-4.5-0.6-12.4-22.4c-4.3-11.8-7.5-23.9-7.6-24l-0.5-2l-47.3,34.2l-23.3-38.2l-96.8,43l-28.6-36.5L589.5,68l-33.2-41.3
		l-33,34.8l-17.5-33.8l-31.6,29.7L447,28.2l-41.3,29c-19.3-11.4-49.6-29.9-51.4-32.7c-0.2-0.5-0.6-0.9-1.2-1
		c-1.3-0.3-3.3-0.8-32,21.7c-11.4,9-22.6,18.1-26.3,21.2L268.6,21l-95.5,40l-21.6-49.5L88.4,55.4c-6.3-5.1-44.1-35.7-50.2-39
		c-1.7-0.9-5.1-2.8-24.3,22.8C8.5,46.4,3.3,53.9,0,58.8v87c3.6,0.5,6.3,0.8,6.9,0.8H1911c3.5,0,6.5-2,8-4.9V87z"/>
</g>
</svg>
